<svg xmlns="http://www.w3.org/2000/svg" viewBox="0 0 512 512" fill="none" role="img" aria-label="CodeTrail logo">
  <defs>
    <linearGradient id="trail" x1="138" y1="152" x2="374" y2="390" gradientUnits="userSpaceOnUse">
      <stop offset="0" stop-color="#57f07b" />
      <stop offset="1" stop-color="#22c55e" />
    </linearGradient>
    <filter id="shadow" x="-20%" y="-20%" width="140%" height="140%">
      <feDropShadow dx="0" dy="10" stdDeviation="10" flood-color="#000000" flood-opacity="0.2" />
    </filter>
  </defs>

  <g filter="url(#shadow)">
    <path d="M 340 98 A 202 202 0 1 0 340 414" stroke="url(#trail)" stroke-width="94" stroke-linecap="round" />
    <circle cx="340" cy="98" r="48" fill="url(#trail)" />
    <circle cx="340" cy="414" r="48" fill="url(#trail)" />

    <path
      d="M 150 190
         H 410
         C 428 190 442 204 442 222
         V 232
         C 442 250 428 264 410 264
         H 289
         V 406
         C 289 424 275 438 257 438
         H 233
         C 215 438 201 424 201 406
         V 264
         H 150
         C 132 264 118 250 118 232
         V 222
         C 118 204 132 190 150 190
         Z"
      fill="white"
    />
  </g>
</svg>
