<svg xmlns="http://www.w3.org/2000/svg" viewBox="0 0 512 512" fill="none" role="img" aria-label="CodeTrail logo">
  <defs>
    <linearGradient id="trail" x1="138" y1="152" x2="374" y2="390" gradientUnits="userSpaceOnUse">
      <stop offset="0" stop-color="#57f07b" />
      <stop offset="1" stop-color="#22c55e" />
    </linearGradient>
    <filter id="shadow" x="-20%" y="-20%" width="140%" height="140%">
      <feDropShadow dx="0" dy="10" stdDeviation="10" flood-color="#000000" flood-opacity="0.2" />
    </filter>
  </defs>

  <g filter="url(#shadow)">
    <path d="M 326 112 A 184 184 0 1 0 326 400" stroke="url(#trail)" stroke-width="84" stroke-linecap="round" />
    <circle cx="326" cy="112" r="43" fill="url(#trail)" />
    <circle cx="326" cy="400" r="43" fill="url(#trail)" />

    <path
      d="M 170 203
         H 400
         C 416 203 428 215 428 231
         V 240
         C 428 256 416 268 400 268
         H 279
         V 396
         C 279 412 267 424 251 424
         H 237
         C 221 424 209 412 209 396
         V 268
         H 170
         C 154 268 142 256 142 240
         V 231
         C 142 215 154 203 170 203
         Z"
      fill="white"
    />
  </g>
</svg>
